<svg width="40" height="41" viewBox="0 0 40 41" fill="none" xmlns="http://www.w3.org/2000/svg">
<circle cx="20" cy="20.5" r="20" fill="#4CC0B5"/>
<g clip-path="url(#clip0)">
<path d="M20 17.14C19.3355 17.14 18.6858 17.3371 18.1333 17.7063C17.5807 18.0755 17.1501 18.6002 16.8958 19.2142C16.6415 19.8281 16.5749 20.5037 16.7046 21.1555C16.8342 21.8073 17.1542 22.406 17.6241 22.8759C18.094 23.3458 18.6927 23.6658 19.3445 23.7954C19.9963 23.9251 20.6719 23.8585 21.2858 23.6042C21.8998 23.3499 22.4245 22.9193 22.7937 22.3667C23.1629 21.8142 23.36 21.1645 23.36 20.5C23.359 19.6092 23.0047 18.7551 22.3748 18.1252C21.7449 17.4953 20.8908 17.141 20 17.14ZM20 22.74C19.557 22.74 19.1239 22.6086 18.7555 22.3625C18.3872 22.1164 18.1 21.7665 17.9305 21.3572C17.761 20.9479 17.7166 20.4975 17.803 20.063C17.8895 19.6285 18.1028 19.2294 18.4161 18.9161C18.7294 18.6028 19.1285 18.3895 19.563 18.303C19.9975 18.2166 20.4479 18.261 20.8572 18.4305C21.2665 18.6 21.6164 18.8872 21.8625 19.2555C22.1086 19.6239 22.24 20.057 22.24 20.5C22.2393 21.0939 22.0031 21.6632 21.5832 22.0832C21.1632 22.5031 20.5939 22.7393 20 22.74ZM23.08 13.5H16.92C15.8807 13.5012 14.8843 13.9146 14.1495 14.6495C13.4146 15.3843 13.0012 16.3807 13 17.42V23.58C13.0012 24.6193 13.4146 25.6157 14.1495 26.3505C14.8843 27.0854 15.8807 27.4988 16.92 27.5H23.08C24.1193 27.4988 25.1157 27.0854 25.8505 26.3505C26.5854 25.6157 26.9988 24.6193 27 23.58V17.42C26.9988 16.3807 26.5854 15.3843 25.8505 14.6495C25.1157 13.9146 24.1193 13.5012 23.08 13.5ZM25.88 23.58C25.8792 24.3224 25.5839 25.0341 25.059 25.559C24.5341 26.0839 23.8224 26.3792 23.08 26.38H16.92C16.1776 26.3792 15.4659 26.0839 14.941 25.559C14.4161 25.0341 14.1208 24.3224 14.12 23.58V17.42C14.1208 16.6776 14.4161 15.9659 14.941 15.441C15.4659 14.9161 16.1776 14.6208 16.92 14.62H23.08C23.8224 14.6208 24.5341 14.9161 25.059 15.441C25.5839 15.9659 25.8792 16.6776 25.88 17.42V23.58ZM24.48 16.86C24.48 17.0261 24.4307 17.1885 24.3384 17.3267C24.2461 17.4648 24.1149 17.5725 23.9615 17.6361C23.808 17.6996 23.6391 17.7163 23.4761 17.6839C23.3132 17.6514 23.1635 17.5714 23.046 17.454C22.9286 17.3365 22.8486 17.1868 22.8161 17.0239C22.7837 16.8609 22.8004 16.692 22.8639 16.5385C22.9275 16.3851 23.0352 16.2539 23.1733 16.1616C23.3115 16.0693 23.4739 16.02 23.64 16.02C23.8628 16.02 24.0764 16.1085 24.234 16.266C24.3915 16.4236 24.48 16.6372 24.48 16.86Z" fill="white"/>
</g>
<defs>
<clipPath id="clip0">
<rect width="14" height="14" fill="white" transform="translate(13 13.5)"/>
</clipPath>
</defs>
</svg>
