<svg width="40" height="41" viewBox="0 0 40 41" fill="none" xmlns="http://www.w3.org/2000/svg">
<circle cx="20" cy="20.5" r="20" fill="#4CC0B5"/>
<g clip-path="url(#clip0)">
<path d="M27.6523 15.6469C27.5059 14.7244 26.6625 13.9182 25.729 13.8112C21.9199 13.3961 18.0769 13.3963 14.2678 13.8116C13.3377 13.9182 12.4943 14.7242 12.3471 15.6503C11.8841 18.6752 11.8843 21.7529 12.3476 24.7777C12.4942 25.7003 13.3377 26.5064 14.2709 26.6132C16.1736 26.8208 18.0861 26.9247 20 26.9246C21.9139 26.9247 23.8264 26.8208 25.729 26.6132L25.7321 26.6129C26.6622 26.5065 27.5058 25.7004 27.6529 24.7742C28.1159 21.7494 28.1157 18.6717 27.6523 15.6469ZM22.7157 20.7083L19.1382 23.0933C19.0484 23.1532 18.944 23.1875 18.8362 23.1928C18.7285 23.198 18.6213 23.1738 18.5261 23.1229C18.431 23.072 18.3515 22.9962 18.296 22.9036C18.2405 22.8111 18.2112 22.7052 18.2112 22.5973V17.8273C18.2112 17.7193 18.2405 17.6134 18.296 17.5209C18.3515 17.4283 18.431 17.3525 18.5262 17.3016C18.6213 17.2506 18.7285 17.2265 18.8363 17.2317C18.9441 17.2369 19.0485 17.2713 19.1383 17.3312L22.7157 19.7162C22.7974 19.7706 22.8644 19.8444 22.9107 19.9309C22.957 20.0175 22.9812 20.1141 22.9812 20.2123C22.9812 20.3104 22.957 20.407 22.9107 20.4936C22.8644 20.5801 22.7974 20.6539 22.7157 20.7083H22.7157Z" fill="white"/>
</g>
<defs>
<clipPath id="clip0">
<rect width="16" height="16" fill="white" transform="translate(12 12.5)"/>
</clipPath>
</defs>
</svg>
