<svg width="40" height="41" viewBox="0 0 40 41" fill="none" xmlns="http://www.w3.org/2000/svg">
<circle cx="20" cy="20.5" r="20" fill="#4CC0B5"/>
<g clip-path="url(#clip0)">
<path d="M28 16.0395C27.5544 16.7023 27.0078 17.2672 26.3601 17.7344C26.3665 17.8597 26.3697 18.0013 26.3697 18.1592C26.3697 19.0367 26.2418 19.9153 25.9859 20.7949C25.7301 21.6745 25.3392 22.5165 24.8134 23.3208C24.2876 24.1251 23.6612 24.8376 22.9344 25.4584C22.2075 26.0791 21.3338 26.5741 20.3132 26.9433C19.2926 27.3124 18.1988 27.497 17.0318 27.497C15.2104 27.497 13.5332 27.0053 12 26.022C12.2721 26.0522 12.5331 26.0674 12.783 26.0674C14.3045 26.0674 15.6635 25.5987 16.86 24.6614C16.1505 24.6484 15.5152 24.43 14.9539 24.0062C14.3926 23.5825 14.0064 23.041 13.7951 22.3818C14.0039 22.4215 14.21 22.4414 14.4134 22.4414C14.7061 22.4414 14.9941 22.4032 15.2774 22.3269C14.5203 22.1753 13.8922 21.7982 13.3932 21.1956C12.8941 20.5931 12.6446 19.8977 12.6446 19.1093V19.0687C13.1093 19.326 13.605 19.4629 14.1317 19.4793C13.6832 19.1803 13.3276 18.7904 13.0649 18.3096C12.8022 17.8288 12.6708 17.3084 12.6708 16.7486C12.6708 16.1582 12.8188 15.6084 13.1147 15.0992C13.938 16.1095 14.9357 16.9171 16.1076 17.5217C17.2796 18.1264 18.5369 18.4622 19.8795 18.5292C19.8223 18.2905 19.7936 18.0415 19.7935 17.782C19.7935 16.8762 20.114 16.1027 20.7552 15.4616C21.3963 14.8205 22.1698 14.5 23.0757 14.5C24.0241 14.5 24.8229 14.8453 25.4722 15.536C26.2141 15.3891 26.9087 15.1233 27.5561 14.7387C27.3066 15.5236 26.826 16.1291 26.1143 16.5552C26.7685 16.4775 27.397 16.3056 28 16.0395H28Z" fill="white"/>
</g>
<defs>
<clipPath id="clip0">
<rect width="16" height="16" fill="white" transform="translate(12 12.5)"/>
</clipPath>
</defs>
</svg>
