<svg width="15" height="15" viewBox="0 0 15 15" fill="none" xmlns="http://www.w3.org/2000/svg">
<path fill-rule="evenodd" clip-rule="evenodd" d="M14.7247 0.27537C14.812 0.362438 14.8813 0.465871 14.9285 0.579745C14.9758 0.693619 15.0001 0.815696 15.0001 0.938985C15.0001 1.06227 14.9758 1.18435 14.9285 1.29822C14.8813 1.4121 14.812 1.51553 14.7247 1.6026L1.60238 14.7249C1.42638 14.9009 1.18767 14.9998 0.938768 14.9998C0.689864 14.9998 0.451154 14.9009 0.275153 14.7249C0.0991511 14.5489 0.00027466 14.3102 0.000274658 14.0613C0.000274656 13.8124 0.0991511 13.5737 0.275153 13.3977L13.3975 0.27537C13.4845 0.188081 13.588 0.118827 13.7019 0.0715749C13.8157 0.0243225 13.9378 0 14.0611 0C14.1844 0 14.3065 0.0243225 14.4203 0.0715749C14.5342 0.118827 14.6376 0.188081 14.7247 0.27537Z" fill="black"/>
<path fill-rule="evenodd" clip-rule="evenodd" d="M0.27537 0.27537C0.188081 0.362438 0.118827 0.465871 0.0715749 0.579745C0.0243225 0.693619 0 0.815696 0 0.938985C0 1.06227 0.0243225 1.18435 0.0715749 1.29822C0.118827 1.4121 0.188081 1.51553 0.27537 1.6026L13.3977 14.7249C13.5737 14.9009 13.8124 14.9998 14.0613 14.9998C14.3102 14.9998 14.5489 14.9009 14.7249 14.7249C14.9009 14.5489 14.9998 14.3102 14.9998 14.0613C14.9998 13.8124 14.9009 13.5737 14.7249 13.3977L1.6026 0.27537C1.51553 0.188081 1.4121 0.118827 1.29822 0.0715749C1.18435 0.0243225 1.06227 0 0.938985 0C0.815696 0 0.693619 0.0243225 0.579745 0.0715749C0.465871 0.118827 0.362438 0.188081 0.27537 0.27537Z" fill="black"/>
</svg>
