<svg width="100" height="100" viewBox="0 0 100 100" fill="none" xmlns="http://www.w3.org/2000/svg">
<path d="M49.494 38.9553C43.1054 38.9553 37.9495 44.1113 37.9495 50.5C37.9495 56.8887 43.1054 62.0447 49.494 62.0447C55.8825 62.0447 61.0384 56.8887 61.0384 50.5C61.0384 44.1113 55.8825 38.9553 49.494 38.9553ZM49.494 58.0032C45.3625 58.0032 41.9909 54.6315 41.9909 50.5C41.9909 46.3685 45.3625 42.9968 49.494 42.9968C53.6254 42.9968 56.997 46.3685 56.997 50.5C56.997 54.6315 53.6254 58.0032 49.494 58.0032ZM61.5112 35.7919C60.0196 35.7919 58.8151 36.9965 58.8151 38.4881C58.8151 39.9798 60.0196 41.1843 61.5112 41.1843C63.0028 41.1843 64.2074 39.9854 64.2074 38.4881C64.2078 38.1339 64.1384 37.7831 64.003 37.4558C63.8677 37.1285 63.6691 36.8311 63.4187 36.5806C63.1682 36.3302 62.8708 36.1316 62.5435 35.9963C62.2162 35.8609 61.8654 35.7915 61.5112 35.7919ZM71.9975 50.5C71.9975 47.3929 72.0256 44.3139 71.8511 41.2125C71.6767 37.61 70.8549 34.4129 68.2206 31.7786C65.5808 29.1387 62.3893 28.3225 58.7869 28.148C55.6799 27.9735 52.601 28.0017 49.4996 28.0017C46.3925 28.0017 43.3136 27.9735 40.2122 28.148C36.6099 28.3225 33.4128 29.1443 30.7785 31.7786C28.1387 34.4185 27.3225 37.61 27.148 41.2125C26.9735 44.3196 27.0017 47.3985 27.0017 50.5C27.0017 53.6015 26.9735 56.6861 27.148 59.7875C27.3225 63.39 28.1443 66.5871 30.7785 69.2214C33.4184 71.8613 36.6099 72.6775 40.2122 72.852C43.3193 73.0265 46.3982 72.9983 49.4996 72.9983C52.6066 72.9983 55.6855 73.0265 58.7869 72.852C62.3893 72.6775 65.5864 71.8557 68.2206 69.2214C70.8605 66.5815 71.6767 63.39 71.8511 59.7875C72.0313 56.6861 71.9975 53.6071 71.9975 50.5ZM67.0442 63.7727C66.6333 64.7972 66.138 65.5627 65.3444 66.3507C64.5507 67.1444 63.7908 67.6397 62.7664 68.0506C59.8057 69.227 52.7755 68.9625 49.494 68.9625C46.2124 68.9625 39.1765 69.227 36.2159 68.0562C35.1914 67.6453 34.4259 67.15 33.6379 66.3563C32.8443 65.5627 32.3489 64.8028 31.938 63.7783C30.7673 60.812 31.0318 53.7816 31.0318 50.5C31.0318 47.2184 30.7673 40.1824 31.938 37.2217C32.3489 36.1972 32.8443 35.4317 33.6379 34.6437C34.4316 33.8556 35.1914 33.3547 36.2159 32.9438C39.1765 31.773 46.2124 32.0375 49.494 32.0375C52.7755 32.0375 59.8114 31.773 62.7721 32.9438C63.7965 33.3547 64.562 33.85 65.35 34.6437C66.1436 35.4373 66.639 36.1972 67.0499 37.2217C68.2206 40.1824 67.9561 47.2184 67.9561 50.5C67.9561 53.7816 68.2206 60.812 67.0442 63.7727Z" fill="white"/>
</svg>
