<svg width="40" height="40" viewBox="0 0 40 40" fill="none" xmlns="http://www.w3.org/2000/svg">
<path d="M20 16.64C19.3355 16.64 18.6858 16.8371 18.1333 17.2063C17.5807 17.5755 17.1501 18.1002 16.8958 18.7142C16.6415 19.3281 16.5749 20.0037 16.7046 20.6555C16.8342 21.3073 17.1542 21.906 17.6241 22.3759C18.094 22.8458 18.6927 23.1658 19.3445 23.2954C19.9963 23.4251 20.6719 23.3585 21.2858 23.1042C21.8998 22.8499 22.4245 22.4193 22.7937 21.8667C23.1629 21.3142 23.36 20.6645 23.36 20C23.359 19.1092 23.0047 18.2551 22.3748 17.6252C21.7449 16.9953 20.8908 16.641 20 16.64ZM20 22.24C19.557 22.24 19.1239 22.1086 18.7555 21.8625C18.3872 21.6164 18.1 21.2665 17.9305 20.8572C17.761 20.4479 17.7166 19.9975 17.803 19.563C17.8895 19.1285 18.1028 18.7294 18.4161 18.4161C18.7294 18.1028 19.1285 17.8895 19.563 17.803C19.9975 17.7166 20.4479 17.761 20.8572 17.9305C21.2665 18.1 21.6164 18.3872 21.8625 18.7555C22.1086 19.1239 22.24 19.557 22.24 20C22.2393 20.5939 22.0031 21.1632 21.5832 21.5832C21.1632 22.0031 20.5939 22.2393 20 22.24ZM23.08 13H16.92C15.8807 13.0012 14.8843 13.4146 14.1495 14.1495C13.4146 14.8843 13.0012 15.8807 13 16.92V23.08C13.0012 24.1193 13.4146 25.1157 14.1495 25.8505C14.8843 26.5854 15.8807 26.9988 16.92 27H23.08C24.1193 26.9988 25.1157 26.5854 25.8505 25.8505C26.5854 25.1157 26.9988 24.1193 27 23.08V16.92C26.9988 15.8807 26.5854 14.8843 25.8505 14.1495C25.1157 13.4146 24.1193 13.0012 23.08 13ZM25.88 23.08C25.8792 23.8224 25.5839 24.5341 25.059 25.059C24.5341 25.5839 23.8224 25.8792 23.08 25.88H16.92C16.1776 25.8792 15.4659 25.5839 14.941 25.059C14.4161 24.5341 14.1208 23.8224 14.12 23.08V16.92C14.1208 16.1776 14.4161 15.4659 14.941 14.941C15.4659 14.4161 16.1776 14.1208 16.92 14.12H23.08C23.8224 14.1208 24.5341 14.4161 25.059 14.941C25.5839 15.4659 25.8792 16.1776 25.88 16.92V23.08ZM24.48 16.36C24.48 16.5261 24.4307 16.6885 24.3384 16.8267C24.2461 16.9648 24.1149 17.0725 23.9615 17.1361C23.808 17.1996 23.6391 17.2163 23.4761 17.1839C23.3132 17.1514 23.1635 17.0714 23.046 16.954C22.9286 16.8365 22.8486 16.6868 22.8161 16.5239C22.7837 16.3609 22.8004 16.192 22.8639 16.0385C22.9275 15.8851 23.0352 15.7539 23.1733 15.6616C23.3115 15.5693 23.4739 15.52 23.64 15.52C23.8628 15.52 24.0764 15.6085 24.234 15.766C24.3915 15.9236 24.48 16.1372 24.48 16.36Z" fill="#6D8684"/>
</svg>
