<svg width="79" height="30" viewBox="0 0 79 30" fill="none" xmlns="http://www.w3.org/2000/svg">
<path d="M0 2C0 0.89543 0.895431 0 2 0H77C78.1046 0 79 0.895431 79 2V28C79 29.1046 78.1046 30 77 30H2C0.895432 30 0 29.1046 0 28V2Z" fill="#66A9A2" fill-opacity="0.09"/>
<path d="M41.5108 11.576H38.2218V20H37.3118V11.576H34.0228V10.77H41.5108V11.576ZM44.112 20.13C43.618 20.13 43.1673 20.039 42.76 19.857C42.3526 19.6663 41.9973 19.4107 41.694 19.09C41.3993 18.7693 41.1696 18.3967 41.005 17.972C40.8403 17.5473 40.758 17.101 40.758 16.633C40.758 16.1563 40.8403 15.7057 41.005 15.281C41.1783 14.8563 41.4123 14.4837 41.707 14.163C42.0103 13.8423 42.3656 13.5867 42.773 13.396C43.1803 13.2053 43.6266 13.11 44.112 13.11C44.5973 13.11 45.0436 13.2053 45.451 13.396C45.867 13.5867 46.2223 13.8423 46.517 14.163C46.8203 14.4837 47.0543 14.8563 47.219 15.281C47.3923 15.7057 47.479 16.1563 47.479 16.633C47.479 17.101 47.3966 17.5473 47.232 17.972C47.0673 18.3967 46.8333 18.7693 46.53 19.09C46.2353 19.4107 45.88 19.6663 45.464 19.857C45.0566 20.039 44.606 20.13 44.112 20.13ZM41.655 16.646C41.655 17.0273 41.72 17.3827 41.85 17.712C41.98 18.0327 42.1533 18.3187 42.37 18.57C42.5953 18.8127 42.8553 19.0033 43.15 19.142C43.4533 19.2807 43.774 19.35 44.112 19.35C44.45 19.35 44.7663 19.2807 45.061 19.142C45.3643 18.9947 45.6286 18.7997 45.854 18.557C46.0793 18.3057 46.257 18.0153 46.387 17.686C46.517 17.3567 46.582 17.0013 46.582 16.62C46.582 16.2473 46.517 15.8963 46.387 15.567C46.257 15.229 46.0793 14.9387 45.854 14.696C45.6286 14.4447 45.3643 14.2497 45.061 14.111C44.7663 13.9637 44.45 13.89 44.112 13.89C43.774 13.89 43.4576 13.9637 43.163 14.111C42.8683 14.2497 42.6083 14.4447 42.383 14.696C42.1576 14.9473 41.98 15.242 41.85 15.58C41.72 15.9093 41.655 16.2647 41.655 16.646ZM51.8824 20.13C51.3884 20.13 50.9334 20.039 50.5174 19.857C50.1101 19.6663 49.7548 19.4107 49.4514 19.09C49.1481 18.7607 48.9098 18.3837 48.7364 17.959C48.5718 17.5343 48.4894 17.0793 48.4894 16.594C48.4894 16.1173 48.5718 15.671 48.7364 15.255C48.9098 14.8303 49.1438 14.462 49.4384 14.15C49.7418 13.8293 50.1014 13.578 50.5174 13.396C50.9334 13.2053 51.3841 13.11 51.8694 13.11C52.3634 13.11 52.8141 13.2053 53.2214 13.396C53.6374 13.578 53.9928 13.8293 54.2874 14.15C54.5821 14.4707 54.8118 14.839 54.9764 15.255C55.1411 15.671 55.2234 16.113 55.2234 16.581C55.2234 16.6503 55.2234 16.7197 55.2234 16.789C55.2234 16.8583 55.2191 16.906 55.2104 16.932H49.4124C49.4384 17.296 49.5208 17.634 49.6594 17.946C49.8068 18.2493 49.9931 18.5137 50.2184 18.739C50.4438 18.9643 50.6994 19.142 50.9854 19.272C51.2801 19.3933 51.5921 19.454 51.9214 19.454C52.1381 19.454 52.3548 19.4237 52.5714 19.363C52.7881 19.3023 52.9874 19.22 53.1694 19.116C53.3514 19.012 53.5161 18.8863 53.6634 18.739C53.8108 18.583 53.9234 18.414 54.0014 18.232L54.7684 18.44C54.6644 18.6913 54.5171 18.921 54.3264 19.129C54.1358 19.3283 53.9148 19.506 53.6634 19.662C53.4121 19.8093 53.1348 19.922 52.8314 20C52.5281 20.0867 52.2118 20.13 51.8824 20.13ZM54.3784 16.256C54.3524 15.892 54.2658 15.5627 54.1184 15.268C53.9798 14.9647 53.7978 14.7047 53.5724 14.488C53.3558 14.2713 53.1001 14.1023 52.8054 13.981C52.5194 13.8597 52.2118 13.799 51.8824 13.799C51.5531 13.799 51.2411 13.8597 50.9464 13.981C50.6518 14.1023 50.3918 14.2713 50.1664 14.488C49.9498 14.7047 49.7721 14.9647 49.6334 15.268C49.5034 15.5713 49.4254 15.9007 49.3994 16.256H54.3784ZM59.7865 19.675C59.7345 19.701 59.6565 19.7357 59.5525 19.779C59.4572 19.8223 59.3445 19.8657 59.2145 19.909C59.0845 19.9523 58.9372 19.9913 58.7725 20.026C58.6079 20.0607 58.4345 20.078 58.2525 20.078C58.0619 20.078 57.8799 20.052 57.7065 20C57.5332 19.948 57.3815 19.87 57.2515 19.766C57.1215 19.6533 57.0175 19.5147 56.9395 19.35C56.8615 19.1853 56.8225 18.9947 56.8225 18.778V13.929H55.8865V13.227H56.8225V10.939H57.7065V13.227H59.2665V13.929H57.7065V18.531C57.7239 18.7823 57.8105 18.9687 57.9665 19.09C58.1312 19.2027 58.3175 19.259 58.5255 19.259C58.7769 19.259 58.9979 19.22 59.1885 19.142C59.3792 19.0553 59.5005 18.9947 59.5525 18.96L59.7865 19.675ZM62.594 20.13C62.2733 20.13 61.9743 20.078 61.697 19.974C61.4283 19.8613 61.19 19.7097 60.982 19.519C60.7827 19.3283 60.6267 19.1073 60.514 18.856C60.4013 18.596 60.345 18.3187 60.345 18.024C60.345 17.7293 60.4143 17.4563 60.553 17.205C60.6917 16.9537 60.8867 16.737 61.138 16.555C61.3893 16.373 61.6883 16.2343 62.035 16.139C62.3817 16.035 62.763 15.983 63.179 15.983C63.5257 15.983 63.8767 16.0133 64.232 16.074C64.5873 16.1347 64.9037 16.2213 65.181 16.334V15.723C65.181 15.125 65.012 14.6527 64.674 14.306C64.336 13.9507 63.868 13.773 63.27 13.773C62.9233 13.773 62.568 13.8423 62.204 13.981C61.84 14.1197 61.4717 14.319 61.099 14.579L60.787 13.994C61.6623 13.4047 62.5117 13.11 63.335 13.11C64.1843 13.11 64.8517 13.3483 65.337 13.825C65.8223 14.3017 66.065 14.9603 66.065 15.801V18.856C66.065 19.0987 66.1733 19.22 66.39 19.22V20C66.2427 20.026 66.13 20.039 66.052 20.039C65.8267 20.039 65.649 19.9827 65.519 19.87C65.3977 19.7573 65.3327 19.6013 65.324 19.402L65.298 18.869C64.986 19.2763 64.5917 19.5883 64.115 19.805C63.647 20.0217 63.14 20.13 62.594 20.13ZM62.802 19.454C63.2613 19.454 63.6817 19.3673 64.063 19.194C64.453 19.0207 64.7477 18.791 64.947 18.505C65.025 18.427 65.0813 18.3447 65.116 18.258C65.1593 18.1627 65.181 18.076 65.181 17.998V16.893C64.8863 16.7803 64.5787 16.6937 64.258 16.633C63.946 16.5723 63.6253 16.542 63.296 16.542C62.672 16.542 62.165 16.672 61.775 16.932C61.385 17.192 61.19 17.5343 61.19 17.959C61.19 18.167 61.229 18.362 61.307 18.544C61.3937 18.726 61.5063 18.8863 61.645 19.025C61.7923 19.155 61.9657 19.259 62.165 19.337C62.3643 19.415 62.5767 19.454 62.802 19.454Z" fill="#1C6961"/>
<g clip-path="url(#clip0)">
<path d="M22.35 10C21.3 10 20.4167 10.6 20 11.4667C19.5833 10.6 18.7 10 17.65 10C16.2 10 15 11.2333 15 12.65C15 15.0667 20 20 20 20C20 20 25 15.0667 25 12.65C25 11.2333 23.8 10 22.35 10Z" fill="#FF5A79"/>
</g>
<defs>
<clipPath id="clip0">
<rect width="12" height="12" fill="white" transform="translate(15 10)"/>
</clipPath>
</defs>
</svg>
