<svg width="80" height="30" viewBox="0 0 80 30" fill="none" xmlns="http://www.w3.org/2000/svg">
<path d="M0 2C0 0.89543 0.895431 0 2 0H78C79.1046 0 80 0.895431 80 2V28C80 29.1046 79.1046 30 78 30H2C0.895429 30 0 29.1046 0 28V2Z" fill="#66A9A2" fill-opacity="0.09"/>
<path d="M42.3588 11.576H39.0698V20H38.1598V11.576H34.8708V10.77H42.3588V11.576ZM44.96 20.13C44.466 20.13 44.0153 20.039 43.608 19.857C43.2007 19.6663 42.8453 19.4107 42.542 19.09C42.2473 18.7693 42.0177 18.3967 41.853 17.972C41.6883 17.5473 41.606 17.101 41.606 16.633C41.606 16.1563 41.6883 15.7057 41.853 15.281C42.0263 14.8563 42.2603 14.4837 42.555 14.163C42.8583 13.8423 43.2137 13.5867 43.621 13.396C44.0283 13.2053 44.4747 13.11 44.96 13.11C45.4453 13.11 45.8917 13.2053 46.299 13.396C46.715 13.5867 47.0703 13.8423 47.365 14.163C47.6683 14.4837 47.9023 14.8563 48.067 15.281C48.2403 15.7057 48.327 16.1563 48.327 16.633C48.327 17.101 48.2447 17.5473 48.08 17.972C47.9153 18.3967 47.6813 18.7693 47.378 19.09C47.0833 19.4107 46.728 19.6663 46.312 19.857C45.9047 20.039 45.454 20.13 44.96 20.13ZM42.503 16.646C42.503 17.0273 42.568 17.3827 42.698 17.712C42.828 18.0327 43.0013 18.3187 43.218 18.57C43.4433 18.8127 43.7033 19.0033 43.998 19.142C44.3013 19.2807 44.622 19.35 44.96 19.35C45.298 19.35 45.6143 19.2807 45.909 19.142C46.2123 18.9947 46.4767 18.7997 46.702 18.557C46.9273 18.3057 47.105 18.0153 47.235 17.686C47.365 17.3567 47.43 17.0013 47.43 16.62C47.43 16.2473 47.365 15.8963 47.235 15.567C47.105 15.229 46.9273 14.9387 46.702 14.696C46.4767 14.4447 46.2123 14.2497 45.909 14.111C45.6143 13.9637 45.298 13.89 44.96 13.89C44.622 13.89 44.3057 13.9637 44.011 14.111C43.7163 14.2497 43.4563 14.4447 43.231 14.696C43.0057 14.9473 42.828 15.242 42.698 15.58C42.568 15.9093 42.503 16.2647 42.503 16.646ZM52.7304 20.13C52.2364 20.13 51.7814 20.039 51.3654 19.857C50.9581 19.6663 50.6028 19.4107 50.2994 19.09C49.9961 18.7607 49.7578 18.3837 49.5844 17.959C49.4198 17.5343 49.3374 17.0793 49.3374 16.594C49.3374 16.1173 49.4198 15.671 49.5844 15.255C49.7578 14.8303 49.9918 14.462 50.2864 14.15C50.5898 13.8293 50.9494 13.578 51.3654 13.396C51.7814 13.2053 52.2321 13.11 52.7174 13.11C53.2114 13.11 53.6621 13.2053 54.0694 13.396C54.4854 13.578 54.8408 13.8293 55.1354 14.15C55.4301 14.4707 55.6598 14.839 55.8244 15.255C55.9891 15.671 56.0714 16.113 56.0714 16.581C56.0714 16.6503 56.0714 16.7197 56.0714 16.789C56.0714 16.8583 56.0671 16.906 56.0584 16.932H50.2604C50.2864 17.296 50.3688 17.634 50.5074 17.946C50.6548 18.2493 50.8411 18.5137 51.0664 18.739C51.2918 18.9643 51.5474 19.142 51.8334 19.272C52.1281 19.3933 52.4401 19.454 52.7694 19.454C52.9861 19.454 53.2028 19.4237 53.4194 19.363C53.6361 19.3023 53.8354 19.22 54.0174 19.116C54.1994 19.012 54.3641 18.8863 54.5114 18.739C54.6588 18.583 54.7714 18.414 54.8494 18.232L55.6164 18.44C55.5124 18.6913 55.3651 18.921 55.1744 19.129C54.9838 19.3283 54.7628 19.506 54.5114 19.662C54.2601 19.8093 53.9828 19.922 53.6794 20C53.3761 20.0867 53.0598 20.13 52.7304 20.13ZM55.2264 16.256C55.2004 15.892 55.1138 15.5627 54.9664 15.268C54.8278 14.9647 54.6458 14.7047 54.4204 14.488C54.2038 14.2713 53.9481 14.1023 53.6534 13.981C53.3674 13.8597 53.0598 13.799 52.7304 13.799C52.4011 13.799 52.0891 13.8597 51.7944 13.981C51.4998 14.1023 51.2398 14.2713 51.0144 14.488C50.7978 14.7047 50.6201 14.9647 50.4814 15.268C50.3514 15.5713 50.2734 15.9007 50.2474 16.256H55.2264ZM60.6345 19.675C60.5825 19.701 60.5045 19.7357 60.4005 19.779C60.3052 19.8223 60.1925 19.8657 60.0625 19.909C59.9325 19.9523 59.7852 19.9913 59.6205 20.026C59.4559 20.0607 59.2825 20.078 59.1005 20.078C58.9099 20.078 58.7279 20.052 58.5545 20C58.3812 19.948 58.2295 19.87 58.0995 19.766C57.9695 19.6533 57.8655 19.5147 57.7875 19.35C57.7095 19.1853 57.6705 18.9947 57.6705 18.778V13.929H56.7345V13.227H57.6705V10.939H58.5545V13.227H60.1145V13.929H58.5545V18.531C58.5719 18.7823 58.6585 18.9687 58.8145 19.09C58.9792 19.2027 59.1655 19.259 59.3735 19.259C59.6249 19.259 59.8459 19.22 60.0365 19.142C60.2272 19.0553 60.3485 18.9947 60.4005 18.96L60.6345 19.675ZM63.442 20.13C63.1214 20.13 62.8224 20.078 62.545 19.974C62.2764 19.8613 62.038 19.7097 61.83 19.519C61.6307 19.3283 61.4747 19.1073 61.362 18.856C61.2494 18.596 61.193 18.3187 61.193 18.024C61.193 17.7293 61.2624 17.4563 61.401 17.205C61.5397 16.9537 61.7347 16.737 61.986 16.555C62.2374 16.373 62.5364 16.2343 62.883 16.139C63.2297 16.035 63.611 15.983 64.027 15.983C64.3737 15.983 64.7247 16.0133 65.08 16.074C65.4354 16.1347 65.7517 16.2213 66.029 16.334V15.723C66.029 15.125 65.86 14.6527 65.522 14.306C65.184 13.9507 64.716 13.773 64.118 13.773C63.7714 13.773 63.416 13.8423 63.052 13.981C62.688 14.1197 62.3197 14.319 61.947 14.579L61.635 13.994C62.5104 13.4047 63.3597 13.11 64.183 13.11C65.0324 13.11 65.6997 13.3483 66.185 13.825C66.6704 14.3017 66.913 14.9603 66.913 15.801V18.856C66.913 19.0987 67.0214 19.22 67.238 19.22V20C67.0907 20.026 66.978 20.039 66.9 20.039C66.6747 20.039 66.497 19.9827 66.367 19.87C66.2457 19.7573 66.1807 19.6013 66.172 19.402L66.146 18.869C65.834 19.2763 65.4397 19.5883 64.963 19.805C64.495 20.0217 63.988 20.13 63.442 20.13ZM63.65 19.454C64.1094 19.454 64.5297 19.3673 64.911 19.194C65.301 19.0207 65.5957 18.791 65.795 18.505C65.873 18.427 65.9294 18.3447 65.964 18.258C66.0074 18.1627 66.029 18.076 66.029 17.998V16.893C65.7344 16.7803 65.4267 16.6937 65.106 16.633C64.794 16.5723 64.4734 16.542 64.144 16.542C63.52 16.542 63.013 16.672 62.623 16.932C62.233 17.192 62.038 17.5343 62.038 17.959C62.038 18.167 62.077 18.362 62.155 18.544C62.2417 18.726 62.3544 18.8863 62.493 19.025C62.6404 19.155 62.8137 19.259 63.013 19.337C63.2124 19.415 63.4247 19.454 63.65 19.454Z" fill="#1C6961"/>
<g clip-path="url(#clip0)">
<path d="M22.35 10C21.3 10 20.4167 10.6 20 11.4667C19.5833 10.6 18.7 10 17.65 10C16.2 10 15 11.2333 15 12.65C15 15.0667 20 20 20 20C20 20 25 15.0667 25 12.65C25 11.2333 23.8 10 22.35 10Z" fill="#FF5A79"/>
</g>
<defs>
<clipPath id="clip0">
<rect width="12" height="12" fill="white" transform="translate(15 10)"/>
</clipPath>
</defs>
</svg>
