<svg width="80" height="30" viewBox="0 0 80 30" fill="none" xmlns="http://www.w3.org/2000/svg">
<path d="M0 2C0 0.89543 0.895431 0 2 0H78C79.1046 0 80 0.895431 80 2V28C80 29.1046 79.1046 30 78 30H2C0.895429 30 0 29.1046 0 28V2Z" fill="#4CC0B5"/>
<path d="M42.3589 11.576H39.0699V20H38.1599V11.576H34.8709V10.77H42.3589V11.576ZM44.9601 20.13C44.4661 20.13 44.0154 20.039 43.6081 19.857C43.2008 19.6663 42.8454 19.4107 42.5421 19.09C42.2474 18.7693 42.0178 18.3967 41.8531 17.972C41.6884 17.5473 41.6061 17.101 41.6061 16.633C41.6061 16.1563 41.6884 15.7057 41.8531 15.281C42.0264 14.8563 42.2604 14.4837 42.5551 14.163C42.8584 13.8423 43.2138 13.5867 43.6211 13.396C44.0284 13.2053 44.4748 13.11 44.9601 13.11C45.4454 13.11 45.8918 13.2053 46.2991 13.396C46.7151 13.5867 47.0704 13.8423 47.3651 14.163C47.6684 14.4837 47.9024 14.8563 48.0671 15.281C48.2404 15.7057 48.3271 16.1563 48.3271 16.633C48.3271 17.101 48.2448 17.5473 48.0801 17.972C47.9154 18.3967 47.6814 18.7693 47.3781 19.09C47.0834 19.4107 46.7281 19.6663 46.3121 19.857C45.9048 20.039 45.4541 20.13 44.9601 20.13ZM42.5031 16.646C42.5031 17.0273 42.5681 17.3827 42.6981 17.712C42.8281 18.0327 43.0014 18.3187 43.2181 18.57C43.4434 18.8127 43.7034 19.0033 43.9981 19.142C44.3014 19.2807 44.6221 19.35 44.9601 19.35C45.2981 19.35 45.6144 19.2807 45.9091 19.142C46.2124 18.9947 46.4768 18.7997 46.7021 18.557C46.9274 18.3057 47.1051 18.0153 47.2351 17.686C47.3651 17.3567 47.4301 17.0013 47.4301 16.62C47.4301 16.2473 47.3651 15.8963 47.2351 15.567C47.1051 15.229 46.9274 14.9387 46.7021 14.696C46.4768 14.4447 46.2124 14.2497 45.9091 14.111C45.6144 13.9637 45.2981 13.89 44.9601 13.89C44.6221 13.89 44.3058 13.9637 44.0111 14.111C43.7164 14.2497 43.4564 14.4447 43.2311 14.696C43.0058 14.9473 42.8281 15.242 42.6981 15.58C42.5681 15.9093 42.5031 16.2647 42.5031 16.646ZM52.7306 20.13C52.2366 20.13 51.7816 20.039 51.3656 19.857C50.9582 19.6663 50.6029 19.4107 50.2996 19.09C49.9962 18.7607 49.7579 18.3837 49.5846 17.959C49.4199 17.5343 49.3376 17.0793 49.3376 16.594C49.3376 16.1173 49.4199 15.671 49.5846 15.255C49.7579 14.8303 49.9919 14.462 50.2866 14.15C50.5899 13.8293 50.9496 13.578 51.3656 13.396C51.7816 13.2053 52.2322 13.11 52.7176 13.11C53.2116 13.11 53.6622 13.2053 54.0696 13.396C54.4856 13.578 54.8409 13.8293 55.1356 14.15C55.4302 14.4707 55.6599 14.839 55.8246 15.255C55.9892 15.671 56.0716 16.113 56.0716 16.581C56.0716 16.6503 56.0716 16.7197 56.0716 16.789C56.0716 16.8583 56.0672 16.906 56.0586 16.932H50.2606C50.2866 17.296 50.3689 17.634 50.5076 17.946C50.6549 18.2493 50.8412 18.5137 51.0666 18.739C51.2919 18.9643 51.5476 19.142 51.8336 19.272C52.1282 19.3933 52.4402 19.454 52.7696 19.454C52.9862 19.454 53.2029 19.4237 53.4196 19.363C53.6362 19.3023 53.8356 19.22 54.0176 19.116C54.1996 19.012 54.3642 18.8863 54.5116 18.739C54.6589 18.583 54.7716 18.414 54.8496 18.232L55.6166 18.44C55.5126 18.6913 55.3652 18.921 55.1746 19.129C54.9839 19.3283 54.7629 19.506 54.5116 19.662C54.2602 19.8093 53.9829 19.922 53.6796 20C53.3762 20.0867 53.0599 20.13 52.7306 20.13ZM55.2266 16.256C55.2006 15.892 55.1139 15.5627 54.9666 15.268C54.8279 14.9647 54.6459 14.7047 54.4206 14.488C54.2039 14.2713 53.9482 14.1023 53.6536 13.981C53.3676 13.8597 53.0599 13.799 52.7306 13.799C52.4012 13.799 52.0892 13.8597 51.7946 13.981C51.4999 14.1023 51.2399 14.2713 51.0146 14.488C50.7979 14.7047 50.6202 14.9647 50.4816 15.268C50.3516 15.5713 50.2736 15.9007 50.2476 16.256H55.2266ZM60.6347 19.675C60.5827 19.701 60.5047 19.7357 60.4007 19.779C60.3053 19.8223 60.1927 19.8657 60.0627 19.909C59.9327 19.9523 59.7853 19.9913 59.6207 20.026C59.456 20.0607 59.2827 20.078 59.1007 20.078C58.91 20.078 58.728 20.052 58.5547 20C58.3813 19.948 58.2297 19.87 58.0997 19.766C57.9697 19.6533 57.8657 19.5147 57.7877 19.35C57.7097 19.1853 57.6707 18.9947 57.6707 18.778V13.929H56.7347V13.227H57.6707V10.939H58.5547V13.227H60.1147V13.929H58.5547V18.531C58.572 18.7823 58.6587 18.9687 58.8147 19.09C58.9793 19.2027 59.1657 19.259 59.3737 19.259C59.625 19.259 59.846 19.22 60.0367 19.142C60.2273 19.0553 60.3487 18.9947 60.4007 18.96L60.6347 19.675ZM63.4421 20.13C63.1215 20.13 62.8225 20.078 62.5451 19.974C62.2765 19.8613 62.0381 19.7097 61.8301 19.519C61.6308 19.3283 61.4748 19.1073 61.3621 18.856C61.2495 18.596 61.1931 18.3187 61.1931 18.024C61.1931 17.7293 61.2625 17.4563 61.4011 17.205C61.5398 16.9537 61.7348 16.737 61.9861 16.555C62.2375 16.373 62.5365 16.2343 62.8831 16.139C63.2298 16.035 63.6111 15.983 64.0271 15.983C64.3738 15.983 64.7248 16.0133 65.0801 16.074C65.4355 16.1347 65.7518 16.2213 66.0291 16.334V15.723C66.0291 15.125 65.8601 14.6527 65.5221 14.306C65.1841 13.9507 64.7161 13.773 64.1181 13.773C63.7715 13.773 63.4161 13.8423 63.0521 13.981C62.6881 14.1197 62.3198 14.319 61.9471 14.579L61.6351 13.994C62.5105 13.4047 63.3598 13.11 64.1831 13.11C65.0325 13.11 65.6998 13.3483 66.1851 13.825C66.6705 14.3017 66.9131 14.9603 66.9131 15.801V18.856C66.9131 19.0987 67.0215 19.22 67.2381 19.22V20C67.0908 20.026 66.9781 20.039 66.9001 20.039C66.6748 20.039 66.4971 19.9827 66.3671 19.87C66.2458 19.7573 66.1808 19.6013 66.1721 19.402L66.1461 18.869C65.8341 19.2763 65.4398 19.5883 64.9631 19.805C64.4951 20.0217 63.9881 20.13 63.4421 20.13ZM63.6501 19.454C64.1095 19.454 64.5298 19.3673 64.9111 19.194C65.3011 19.0207 65.5958 18.791 65.7951 18.505C65.8731 18.427 65.9295 18.3447 65.9641 18.258C66.0075 18.1627 66.0291 18.076 66.0291 17.998V16.893C65.7345 16.7803 65.4268 16.6937 65.1061 16.633C64.7941 16.5723 64.4735 16.542 64.1441 16.542C63.5201 16.542 63.0131 16.672 62.6231 16.932C62.2331 17.192 62.0381 17.5343 62.0381 17.959C62.0381 18.167 62.0771 18.362 62.1551 18.544C62.2418 18.726 62.3545 18.8863 62.4931 19.025C62.6405 19.155 62.8138 19.259 63.0131 19.337C63.2125 19.415 63.4248 19.454 63.6501 19.454Z" fill="white"/>
<g clip-path="url(#clip0)">
<path d="M22.35 10C21.3 10 20.4167 10.6 20 11.4667C19.5833 10.6 18.7 10 17.65 10C16.2 10 15 11.2333 15 12.65C15 15.0667 20 20 20 20C20 20 25 15.0667 25 12.65C25 11.2333 23.8 10 22.35 10Z" fill="white"/>
</g>
<defs>
<clipPath id="clip0">
<rect width="12" height="12" fill="white" transform="translate(15 10)"/>
</clipPath>
</defs>
</svg>
