<svg width="40" height="40" viewBox="0 0 40 40" fill="none" xmlns="http://www.w3.org/2000/svg">
<g clip-path="url(#clip0)">
<path d="M28 15.5395C27.5544 16.2023 27.0078 16.7672 26.3601 17.2344C26.3665 17.3597 26.3697 17.5013 26.3697 17.6592C26.3697 18.5367 26.2418 19.4153 25.9859 20.2949C25.7301 21.1745 25.3392 22.0165 24.8134 22.8208C24.2876 23.6251 23.6612 24.3376 22.9344 24.9584C22.2075 25.5791 21.3338 26.0741 20.3132 26.4433C19.2926 26.8124 18.1988 26.997 17.0318 26.997C15.2104 26.997 13.5332 26.5053 12 25.522C12.2721 25.5522 12.5331 25.5674 12.783 25.5674C14.3045 25.5674 15.6635 25.0987 16.86 24.1614C16.1505 24.1484 15.5152 23.93 14.9539 23.5062C14.3926 23.0825 14.0064 22.541 13.7951 21.8818C14.0039 21.9215 14.21 21.9414 14.4134 21.9414C14.7061 21.9414 14.9941 21.9032 15.2774 21.8269C14.5203 21.6753 13.8922 21.2982 13.3932 20.6956C12.8941 20.0931 12.6446 19.3977 12.6446 18.6093V18.5687C13.1093 18.826 13.605 18.9629 14.1317 18.9793C13.6832 18.6803 13.3276 18.2904 13.0649 17.8096C12.8022 17.3288 12.6708 16.8084 12.6708 16.2486C12.6708 15.6582 12.8188 15.1084 13.1147 14.5992C13.938 15.6095 14.9357 16.4171 16.1076 17.0217C17.2796 17.6264 18.5369 17.9622 19.8795 18.0292C19.8223 17.7905 19.7936 17.5415 19.7935 17.282C19.7935 16.3762 20.114 15.6027 20.7552 14.9616C21.3963 14.3205 22.1698 14 23.0757 14C24.0241 14 24.8229 14.3453 25.4722 15.036C26.2141 14.8891 26.9087 14.6233 27.5561 14.2387C27.3066 15.0236 26.826 15.6291 26.1143 16.0552C26.7685 15.9775 27.397 15.8056 28 15.5395H28Z" fill="#6D8684"/>
</g>
<defs>
<clipPath id="clip0">
<rect width="16" height="16" fill="white" transform="translate(12 12)"/>
</clipPath>
</defs>
</svg>
