<svg width="100" height="100" viewBox="0 0 100 100" fill="none" xmlns="http://www.w3.org/2000/svg">
<g clip-path="url(#clip0)">
<path d="M71.9114 36.5681C70.2272 37.3085 68.4433 37.7975 66.6169 38.0194C68.5421 36.8638 69.9834 35.0498 70.6739 32.9133C68.8529 33.9694 66.871 34.7195 64.807 35.1337C63.4191 33.6508 61.5806 32.6673 59.5767 32.336C57.5728 32.0046 55.5155 32.3439 53.7241 33.3012C51.9327 34.2584 50.5073 35.7801 49.669 37.6302C48.8308 39.4802 48.6265 41.5553 49.088 43.5333C41.4197 43.1747 34.6219 39.4903 30.0755 33.9244C29.2479 35.3319 28.815 36.9364 28.8225 38.5692C28.8214 40.0871 29.1951 41.5817 29.9104 42.9204C30.6258 44.2591 31.6607 45.4005 32.9231 46.2431C31.4601 46.1989 30.0289 45.8049 28.7494 45.0942V45.2053C28.7489 47.3358 29.4851 49.4009 30.8332 51.0507C32.1813 52.7004 34.0584 53.8333 36.1463 54.2573C35.3554 54.4686 34.5405 54.5769 33.7219 54.5794C33.1298 54.5794 32.5645 54.5217 32.0006 54.4176C32.5948 56.251 33.7458 57.8535 35.2934 59.0021C36.841 60.1507 38.7081 60.7882 40.635 60.8259C37.3703 63.3827 33.3419 64.7697 29.1952 64.7648C28.4607 64.7677 27.7267 64.7264 26.9972 64.6411C31.2273 67.3516 36.1468 68.7905 41.1708 68.7867C58.14 68.7867 67.4128 54.7312 67.4128 42.5587C67.4128 42.1706 67.4128 41.7755 67.3833 41.3789C69.1972 40.0789 70.7604 38.4608 71.9972 36.6033L71.9114 36.5681Z" fill="white"/>
</g>
<defs>
<clipPath id="clip0">
<rect width="45" height="45" fill="white" transform="translate(27 28)"/>
</clipPath>
</defs>
</svg>
