<svg width="40" height="40" viewBox="0 0 40 40" fill="none" xmlns="http://www.w3.org/2000/svg">
<path d="M27.6523 15.1469C27.5059 14.2244 26.6625 13.4182 25.729 13.3112C21.9199 12.8961 18.0769 12.8963 14.2678 13.3116C13.3377 13.4182 12.4943 14.2242 12.3471 15.1503C11.8841 18.1752 11.8843 21.2529 12.3476 24.2777C12.4942 25.2003 13.3377 26.0064 14.2709 26.1132C16.1736 26.3208 18.0861 26.4247 20 26.4246C21.9139 26.4247 23.8264 26.3208 25.729 26.1132L25.7321 26.1129C26.6622 26.0065 27.5058 25.2004 27.6529 24.2742C28.1159 21.2494 28.1157 18.1717 27.6523 15.1469ZM22.7157 20.2083L19.1382 22.5933C19.0484 22.6532 18.944 22.6875 18.8362 22.6928C18.7285 22.698 18.6213 22.6738 18.5261 22.6229C18.431 22.572 18.3515 22.4962 18.296 22.4036C18.2405 22.3111 18.2112 22.2052 18.2112 22.0973V17.3273C18.2112 17.2193 18.2405 17.1134 18.296 17.0209C18.3515 16.9283 18.431 16.8525 18.5262 16.8016C18.6213 16.7506 18.7285 16.7265 18.8363 16.7317C18.9441 16.7369 19.0485 16.7713 19.1383 16.8312L22.7157 19.2162C22.7974 19.2706 22.8644 19.3444 22.9107 19.4309C22.957 19.5175 22.9812 19.6141 22.9812 19.7123C22.9812 19.8104 22.957 19.907 22.9107 19.9936C22.8644 20.0801 22.7974 20.1539 22.7157 20.2083H22.7157Z" fill="#6D8684"/>
</svg>
