<svg width="100" height="100" viewBox="0 0 100 100" fill="none" xmlns="http://www.w3.org/2000/svg">
<path d="M71.0608 37.6419C70.8047 36.5494 70.3024 35.5531 69.6043 34.7527C68.9063 33.9523 68.0369 33.3759 67.0831 33.0812C63.5725 32 49.5 32 49.5 32C49.5 32 35.4275 32 31.9169 33.0755C30.9627 33.3692 30.0929 33.9453 29.3947 34.7458C28.6965 35.5464 28.1945 36.5432 27.9392 37.6361C27 41.6619 27 50.0586 27 50.0586C27 50.0586 27 58.4553 27.9392 62.4753C28.4565 64.6953 29.9833 66.4436 31.9169 67.036C35.4275 68.1172 49.5 68.1172 49.5 68.1172C49.5 68.1172 63.5725 68.1172 67.0831 67.036C69.0218 66.4436 70.5435 64.6953 71.0608 62.4753C72 58.4553 72 50.0586 72 50.0586C72 50.0586 72 41.6619 71.0608 37.6419ZM45.0301 57.7651V42.3521L56.6819 50.0011L45.0301 57.7651Z" fill="white"/>
</svg>
